<svg width="32" height="32" viewBox="0 0 32 32" fill="none" xmlns="http://www.w3.org/2000/svg">
  <!-- Background circle -->
  <circle cx="16" cy="16" r="15" fill="url(#gradient)" stroke="#667eea" stroke-width="2"/>
  
  <!-- Letter B -->
  <path d="M10 8h8c2.2 0 4 1.8 4 4s-1.8 4-4 4h-2v4h-6V8zm2 2v6h6c1.1 0 2-.9 2-2s-.9-2-2-2h-6z" fill="white"/>
  
  <!-- Heart symbol -->
  <path d="M20 18c0-1.1-.9-2-2-2s-2 .9-2 2c0 1.1.9 2 2 2s2-.9 2-2z" fill="#ff6b6b"/>
  
  <!-- Gradient definition -->
  <defs>
    <linearGradient id="gradient" x1="0%" y1="0%" x2="100%" y2="100%">
      <stop offset="0%" style="stop-color:#667eea;stop-opacity:1" />
      <stop offset="100%" style="stop-color:#764ba2;stop-opacity:1" />
    </linearGradient>
  </defs>
</svg> 